<svg xmlns="http://www.w3.org/2000/svg" width="1000" height="280" viewBox="0 0 1000 280"><rect width="1000" height="280" rx="20" fill="#0b1220" stroke="#263449"/><text x="28" y="37" font-family="monospace" font-size="13" letter-spacing="3" fill="#a5b4fc">04 / HOW A FEATURE FLOWS</text><text x="28" y="64" font-family="Arial,sans-serif" font-size="22" font-weight="700" fill="#f8fafc">From user intent to reliable data</text>
<g font-family="monospace" text-anchor="middle"><rect x="28" y="100" width="170" height="92" rx="12" fill="#0e7490" fill-opacity=".18" stroke="#22d3ee"/><text x="113" y="137" font-size="14" fill="#a5f3fc">01 / CLIENT</text><text x="113" y="160" font-size="12" fill="#e2e8f0">React UI</text><rect x="222" y="100" width="170" height="92" rx="12" fill="#4338ca" fill-opacity=".18" stroke="#818cf8"/><text x="307" y="137" font-size="14" fill="#c7d2fe">02 / API</text><text x="307" y="160" font-size="12" fill="#e2e8f0">Auth · Validation</text><rect x="416" y="100" width="170" height="92" rx="12" fill="#7e22ce" fill-opacity=".16" stroke="#c084fc"/><text x="501" y="137" font-size="14" fill="#e9d5ff">03 / SERVICE</text><text x="501" y="160" font-size="12" fill="#e2e8f0">Business logic</text><rect x="610" y="100" width="170" height="92" rx="12" fill="#854d0e" fill-opacity=".18" stroke="#fbbf24"/><text x="695" y="137" font-size="14" fill="#fde68a">04 / DATA</text><text x="695" y="160" font-size="12" fill="#e2e8f0">PostgreSQL</text><rect x="804" y="100" width="168" height="92" rx="12" fill="#065f46" fill-opacity=".2" stroke="#34d399"/><text x="888" y="137" font-size="14" fill="#a7f3d0">05 / OPERATE</text><text x="888" y="160" font-size="12" fill="#e2e8f0">Jobs · Monitor</text></g>
<g stroke="#94a3b8" stroke-width="2"><path d="M198 146 H218 M392 146 H412 M586 146 H606 M780 146 H800"/></g><circle r="4" fill="#67e8f9"><animateMotion dur="5s" repeatCount="indefinite" path="M198 146 H218 M392 146 H412 M586 146 H606 M780 146 H800"/></circle><text x="28" y="236" font-family="monospace" font-size="12" fill="#64748b">DESIGN FOR CLARITY · VALIDATE AT BOUNDARIES · MEASURE REAL BOTTLENECKS</text></svg>